<?xml version="1.0" encoding="UTF-8"?>
<svg width="35px" height="30px" viewBox="0 0 35 30" version="1.1" xmlns="http://www.w3.org/2000/svg" xmlns:xlink="http://www.w3.org/1999/xlink">
    <title>编组 2</title>
    <defs>
        <polygon id="path-1" points="0 0 34 0 34 27.9224417 0 27.9224417"></polygon>
    </defs>
    <g id="页面-1" stroke="none" stroke-width="1" fill="none" fill-rule="evenodd">
        <g id="编组-2">
            <g id="编组" transform="translate(1.000000, 1.000000)">
                <g>
                    <mask id="mask-2" fill="white">
                        <use xlink:href="#path-1"></use>
                    </mask>
                    <g id="Clip-2"></g>
                    <path d="M27.8223753,12.5555019 C28.0566204,15.0733041 27.6709719,17.4285273 26.6647202,19.6748323 C25.6540338,21.9308937 24.1290902,23.7809067 22.1100234,25.2739199 C23.0750316,25.713584 24.0350729,25.9205996 25.0412358,25.920777 C26.9335566,25.9212204 28.8260548,25.9210374 30.7183756,25.9202448 C30.8113286,25.9202448 30.9041929,25.9096013 31.0487667,25.9007318 C30.8006851,25.5554397 30.5820505,25.2536086 30.3658106,24.9499148 C29.9272108,24.3337464 29.9409586,23.9629101 30.4216888,23.3713991 C32.3288218,21.0248681 32.5403608,17.8132888 30.9469442,15.2520258 C30.1964906,14.0457655 29.1650494,13.158632 27.8223753,12.5555019 L27.8223753,12.5555019 Z M2.92250254,25.9208657 L3.22060848,25.9208657 C6.80586234,25.920777 10.3912049,25.933283 13.9762814,25.910577 C14.7350723,25.9057874 15.5053049,25.8349196 16.2493724,25.6883058 C22.6461883,24.4276751 26.8288071,18.3113147 25.7096459,11.8881561 C24.5650291,5.31829508 18.1653749,0.92670945 11.6393295,2.23257488 C2.73508872,4.01446965 -1.03349896,14.6606922 4.77251553,21.63128 C5.26708224,22.2251858 5.28100745,22.5942482 4.82803898,23.2342757 C4.20920972,24.1089031 3.58851786,24.9821113 2.92250254,25.9208657 L2.92250254,25.9208657 Z M-1.77391216e-05,13.0357886 C0.083178741,12.4798445 0.142516103,11.9191996 0.253385612,11.3690208 C1.08659215,7.23482978 3.30788496,4.04994789 6.9418327,1.92888112 C12.1877344,-1.13324604 18.5325747,-0.500668967 23.1195568,3.47857078 C25.1395106,5.23092991 26.5317655,7.40663317 27.2951686,9.97383884 C27.3674555,10.2168648 27.4889685,10.3240091 27.723391,10.3986021 C31.5799647,11.6252624 34.112047,15.1888745 33.992574,19.2376516 C33.9421062,20.9463725 33.4320177,22.5198326 32.4704686,23.9365675 C32.3297087,24.1440265 32.3238548,24.2816821 32.4750808,24.4818681 C32.9013519,25.0466817 33.3007482,25.631718 33.7201898,26.2017646 C33.9897357,26.5681662 34.105927,26.9504443 33.8806401,27.3752075 C33.6648437,27.7820543 33.3044734,27.9171377 32.8584232,27.9162507 C30.225228,27.9106629 27.5920328,27.9192664 24.9588376,27.9113725 C23.3181463,27.9064055 21.7943557,27.4647901 20.393586,26.6118931 C20.2145982,26.5029749 20.0805792,26.4823975 19.8835862,26.5760601 C17.9870081,27.4785379 15.9844386,27.9148316 13.8846588,27.9140334 C9.69148524,27.9123481 5.49831169,27.9054299 1.30513813,27.9224828 C0.696331478,27.9248542 0.257643002,27.7434717 -1.77391216e-05,27.1829155 L-1.77391216e-05,26.6516288 C0.96366004,25.2673564 1.92733782,23.8832615 2.89491821,22.4935787 C2.85394083,22.4304274 2.81553564,22.3631961 2.76959131,22.3016414 C1.54913975,20.6662718 0.723028856,18.8504066 0.309086454,16.853425 C0.175156086,16.2071888 0.101272645,15.5484465 -1.77391216e-05,14.8954694 L-1.77391216e-05,13.0357886 Z" id="Fill-1" fill="#352E50" mask="url(#mask-2)"></path>
                </g>
                <path d="M13.9795808,12.9693556 C15.9365607,12.9694443 17.8936293,12.9661626 19.8506092,12.9710408 C20.6573845,12.9729034 21.1522173,13.71839 20.8071026,14.4040071 C20.6073601,14.8006538 20.2671238,14.9634103 19.8310962,14.9629677 C17.995718,14.9603946 16.1603397,14.9619024 14.3249615,14.9619024 C12.2352043,14.9619024 10.1455358,14.9642972 8.05577858,14.960572 C7.25946942,14.9591529 6.75017923,14.2502976 7.05937212,13.5706231 C7.2537929,13.143199 7.60928489,12.9662513 8.07538031,12.9673987 C10.0434472,12.9721052 12.011514,12.9693556 13.9795808,12.9693556" id="Fill-3" fill="#0ED5C0"></path>
                <path d="M13.9072141,18.9469606 C11.9502342,18.9469606 9.99316561,18.9504197 8.03618572,18.9451867 C7.24617394,18.9431467 6.74708376,18.2153105 7.06833925,17.538297 C7.26382437,17.1263946 7.60991463,16.9524625 8.06181875,16.9530817 C10.3616072,16.9562764 12.6613956,16.9544138 14.961184,16.9544138 C16.5975293,16.9544138 18.2339632,16.9541477 19.8703085,16.9547686 C20.3099726,16.954946 20.6405412,17.1467946 20.825028,17.5466344 C21.0054349,17.9376046 20.9293341,18.3058688 20.647282,18.6230443 C20.4280265,18.8695294 20.1380805,18.9497989 19.8114146,18.9490065 C17.8433478,18.9449206 15.8752809,18.9469606 13.9072141,18.9469606" id="Fill-5" fill="#0ED5C0"></path>
                <path d="M11.2530601,10.9767378 C10.2032589,10.9767378 9.15345769,10.9779796 8.10365647,10.9762943 C7.43027942,10.97523 6.97739964,10.5761885 6.9736517,9.98600788 C6.96994921,9.39511774 7.4245142,8.98516664 8.09203735,8.98472316 C10.2248119,8.98330403 12.3576752,8.98321534 14.4904498,8.98481186 C15.1566425,8.98534403 15.610764,9.39902035 15.6039237,9.99106353 C15.5971049,10.5712215 15.1496356,10.9745204 14.5019802,10.9760283 C13.4190069,10.9786004 12.3360335,10.9767378 11.2530601,10.9767378" id="Fill-7" fill="#0ED5C0"></path>
            </g>
            <rect id="矩形" fill="#D8D8D8" opacity="0" x="0" y="0" width="35" height="30"></rect>
        </g>
    </g>
</svg>