<?xml version="1.0" encoding="UTF-8"?>
<svg width="35px" height="30px" viewBox="0 0 35 30" version="1.1" xmlns="http://www.w3.org/2000/svg" xmlns:xlink="http://www.w3.org/1999/xlink">
    <title>编组 9</title>
    <defs>
        <polygon id="path-1" points="-4.31853431e-16 0 30 0 30 27.1947359 -4.31853431e-16 27.1947359"></polygon>
    </defs>
    <g id="页面-1" stroke="none" stroke-width="1" fill="none" fill-rule="evenodd">
        <g id="编组-9">
            <g id="编组" transform="translate(3.000000, 1.000000)">
                <g>
                    <mask id="mask-2" fill="white">
                        <use xlink:href="#path-1"></use>
                    </mask>
                    <g id="Clip-2"></g>
                    <path d="M15.0026476,25.2384237 C16.7215296,25.2384237 18.4405736,25.2490395 20.1592935,25.2343718 C21.1755011,25.2257818 21.9758253,24.7814544 22.4891966,23.8981479 C24.2254205,20.9111945 25.9547563,17.9201891 27.6721795,14.9224577 C28.1721796,14.0497672 28.1714503,13.1365579 27.6716123,12.2638674 C25.9596995,9.27456382 24.2346588,6.29279675 22.5062144,3.31305561 C21.9876568,2.41921431 21.1888722,1.95746383 20.1585641,1.95454649 C16.7208002,1.94474098 13.2829553,1.94465994 9.84519139,1.95454649 C8.81464018,1.95754487 8.0169091,2.42148335 7.49867563,3.31483844 C5.78044198,6.27715656 4.06998791,9.24401277 2.36155977,12.2120845 C1.8337639,13.1290215 1.83433116,14.0598158 2.36196496,14.9766717 C4.07014998,17.9448245 5.78052302,20.9117617 7.49835148,23.874323 C8.0169091,24.7684884 8.81699026,25.2256198 9.84600176,25.2343718 C11.5647216,25.2491206 13.2836846,25.2384237 15.0026476,25.2384237 M15.0058081,0.00892220559 C16.7247711,0.00892220559 18.4441392,-0.0126337134 20.162697,0.0148379277 C21.9128594,0.0428768299 23.2814982,0.80948959 24.1692617,2.32464379 C25.9160204,5.30560049 27.6443838,8.29757826 29.3535412,11.300334 C30.2096192,12.8044671 30.2175608,14.3639487 29.3648865,15.8677577 C27.6457614,18.8996869 25.9057287,21.9201898 24.1341725,24.9216489 C23.2686132,26.3880997 21.9175595,27.155928 20.2168299,27.171082 C16.7386284,27.2019572 13.2597786,27.2034969 9.78165816,27.1704337 C8.08238723,27.1543073 6.73214391,26.3833995 5.86731396,24.9162194 C4.09227316,21.9050358 2.3457575,18.8766723 0.624039243,15.8346135 C-0.209591355,14.3616797 -0.207403348,12.8223764 0.626956586,11.3493616 C2.34478505,8.3167841 4.08676263,5.2975778 5.8545911,2.29384962 C6.73117146,0.804465278 8.09316519,0.0464424707 9.81853012,0.0156483006 C11.5470555,-0.0151458694 13.2766344,0.00892220559 15.0058081,0.00892220559" id="Fill-1" fill="#352E50" mask="url(#mask-2)"></path>
                </g>
                <path d="M18.8085605,13.6011042 C18.8139772,11.5203908 17.0937176,9.79381026 15.0091144,9.78787975 C12.9292924,9.78205985 11.2015773,11.5036971 11.1962979,13.5872468 C11.1910425,15.667312 12.9123556,17.3953511 14.995176,17.4011188 C17.0747549,17.4067774 18.8030372,15.684654 18.8085605,13.6011042 M15.1958243,19.3364373 C12.1110588,19.5018344 9.43788177,17.0130982 9.26065321,13.8105856 C9.08877312,10.7064522 11.572485,8.03197854 14.7935552,7.85272406 C17.8934746,7.68027671 20.5732157,10.1751717 20.7444475,13.3930004 C20.9094394,16.4958372 18.4187583,19.1636658 15.1958243,19.3364373" id="Fill-3" fill="#28D50E"></path>
            </g>
            <rect id="矩形" fill="#D8D8D8" opacity="0" x="0" y="0" width="35" height="30"></rect>
        </g>
    </g>
</svg>