<svg xmlns="http://www.w3.org/2000/svg" width="20" height="20" viewBox="0 0 20 20">
    <g fill="none" fill-rule="evenodd">
        <g fill="#3B99FC" fill-rule="nonzero">
            <g>
                <g>
                    <g>
                        <g>
                            <path d="M4.094 2.666c3.262-3.184 8.55-3.184 11.812 0l.392.383c.163.16.163.417 0 .577l-1.343 1.31c-.081.08-.213.08-.295 0l-.54-.527c-2.275-2.221-5.965-2.221-8.24 0l-.578.565c-.082.08-.214.08-.296 0L3.664 3.663c-.164-.16-.164-.417 0-.577l.43-.42zm14.589 2.71l1.195 1.167c.163.16.163.418 0 .577l-5.389 5.26c-.163.16-.427.16-.59 0l-3.825-3.733c-.04-.04-.107-.04-.148 0l-3.824 3.734c-.163.159-.428.159-.59 0L.121 7.12c-.163-.16-.163-.417 0-.577l1.195-1.166c.163-.16.428-.16.591 0L5.733 9.11c.04.04.106.04.147 0l3.825-3.733c.163-.16.427-.16.59 0L14.12 9.11c.04.04.107.04.147 0l3.825-3.733c.163-.16.428-.16.59 0z" transform="translate(-73.000000, -225.000000) translate(67.000000, 219.000000) translate(6.000000, 4.000000) translate(0.000000, 2.000000) translate(0.000000, 3.000000)"/>
                        </g>
                    </g>
                </g>
            </g>
        </g>
    </g>
</svg>
